# xmcd CD database file
#
# Track frame offsets:
#	150
#	16925
#	33742
#	46507
#	62035
#	79005
#	97300
#	112840
#	131105
#	148570
#
# Disc length: 2248 seconds
#
# Revision: 0
# Processed by: cddbd v1.5.2PL0 Copyright (c) Steve Scherf et al.
# Submitted via: CDex 1.51
#
DISCID=8108c60a
DTITLE=Little Big Town - Little Big Town
DYEAR=2002
DGENRE=Country
TTITLE0=Pontiac
TTITLE1=Everything Changes
TTITLE2=Don't Waste My Time
TTITLE3=Still
TTITLE4=Never Felt Love
TTITLE5=Tryin'
TTITLE6=Stay
TTITLE7=Somewhere Far Away
TTITLE8=A Thousand Years
TTITLE9=From This Dream
EXTD=YEAR: 2002
EXTT0=
EXTT1=
EXTT2=
EXTT3=
EXTT4=
EXTT5=
EXTT6=
EXTT7=
EXTT8=
EXTT9=
PLAYORDER=
